<svg width="18" height="18" viewBox="0 0 18 18" fill="none" xmlns="http://www.w3.org/2000/svg">
<path d="M15.6726 2.32731C15.3351 1.98986 14.8773 1.80029 14.4 1.80029C13.9228 1.80029 13.465 1.98986 13.1274 2.32731L6.30005 9.15471V11.6999H8.84525L15.6726 4.87251C16.0101 4.53496 16.1997 4.0772 16.1997 3.59991C16.1997 3.12261 16.0101 2.66486 15.6726 2.32731Z" fill="white"/>
<path fill-rule="evenodd" clip-rule="evenodd" d="M1.80005 5.4001C1.80005 4.92271 1.98969 4.46487 2.32726 4.12731C2.66482 3.78974 3.12266 3.6001 3.60005 3.6001H7.20005C7.43874 3.6001 7.66766 3.69492 7.83644 3.8637C8.00523 4.03248 8.10005 4.2614 8.10005 4.5001C8.10005 4.73879 8.00523 4.96771 7.83644 5.13649C7.66766 5.30528 7.43874 5.4001 7.20005 5.4001H3.60005V14.4001H12.6V10.8001C12.6 10.5614 12.6949 10.3325 12.8637 10.1637C13.0324 9.99492 13.2614 9.9001 13.5 9.9001C13.7387 9.9001 13.9677 9.99492 14.1364 10.1637C14.3052 10.3325 14.4 10.5614 14.4 10.8001V14.4001C14.4 14.8775 14.2104 15.3353 13.8728 15.6729C13.5353 16.0105 13.0774 16.2001 12.6 16.2001H3.60005C3.12266 16.2001 2.66482 16.0105 2.32726 15.6729C1.98969 15.3353 1.80005 14.8775 1.80005 14.4001V5.4001Z" fill="white"/>
</svg>
